# xmcd
#
# Track frame offsets: 
#        150
#        24999
#        54584
#        65714
#        111810
#        116191
#        136623
#        146211
#        175787
#        208896
#        277773
#
# Disc length: 3747 seconds
#
# Revision: 0
# Processed by: cddbd v1.5.2PL0 Copyright (c) Steve Scherf et al.
# Submitted via: ExactAudioCopy v0.95b3
#
DISCID=a30ea10b
DTITLE=Various Artist - California Jam II - D2
DYEAR=1900
DGENRE=
TTITLE0=Rock The Baby - [Dave Mason]
TTITLE1=Taking The Time To find - [Dave Mason]
TTITLE2=All Along The Watchtower - [Dave Mason]
TTITLE3=Gimme Some Lovin' - [Dave Mason]
TTITLE4=Introduction - [Santana]
TTITLE5=She's Not There - [Santana]
TTITLE6=Jugando - [Santana]
TTITLE7=Black Magic Woman - [Santana]
TTITLE8=Dance Sister Dance - [Santana]
TTITLE9=Soul Sacrifice - [Santana]
TTITLE10=Outroduction - [Santana]
EXTD=
EXTT0=
EXTT1=
EXTT2=
EXTT3=
EXTT4=
EXTT5=
EXTT6=
EXTT7=
EXTT8=
EXTT9=
EXTT10=
PLAYORDER=
